<!-- Generated by IcoMoon.io -->
<svg version="1.1" xmlns="http://www.w3.org/2000/svg"  width="512" height="512" viewBox="0 0 512 512">
<title></title>
<g id="icomoon-ignore">
</g>
<path fill="#000" d="M73.433 439.024v-6.148q0-191.694 0-383.389c0-19.956 7.632-35.852 26.195-44.456 6.632-3.010 14.382-4.764 22.541-4.764 0.022 0 0.043 0 0.065 0h-0.004q160.194-0.449 320.406-0.22c1.53 0 3.051 0.202 5.498 0.385-9.868 13.358-9.043 28.183-9.034 42.934q0.064 219.154 0 438.308c0 16.382-9.51 28.752-23.63 29.878-18.49 1.484-32.691-6.148-42.733-21.659-5.214-8.053-6.642-17.087-6.835-26.433-0.082-4.269 0-8.539 0-12.827-0.11-8.576-3.087-11.563-11.508-11.663h-280.963zM338.224 224.131c7.587-5.754 9.281-13.56 8.979-21.989-0.257-3.084-0.799-5.928-1.606-8.658l0.077 0.302c-1.521-6.413-0.467-11.701 5.030-16.080 17.097-13.643 17.582-30.236-0.147-44.337-5.314-4.224-6.413-9.428-4.993-15.576 0.358-1.558 0.642-3.133 0.916-4.701 3.344-16.831-5.498-29.072-22.512-30.117-9.584-0.587-15.475-4.297-19.241-13.496-7.046-17.326-20.964-21.788-36.988-12.021-8.118 4.938-14.935 4.993-23.071 0-15.97-9.785-29.952-5.269-37.006 12.002-3.665 8.906-9.236 12.828-18.663 13.469-17.922 1.264-26.892 13.093-22.778 30.63 2.327 9.932 0.696 17.409-7.907 23.006-0.448 0.323-0.841 0.673-1.196 1.058l-0.005 0.006c-10.078 9.996-10.995 21.742-2.382 32.984 1.85 2.439 3.946 4.55 6.29 6.356l0.078 0.058c6.038 4.581 7.513 10.345 5.653 17.409-2.987 11.325-2.043 21.751 7.43 29.915-0.559 1.026-0.962 1.833-1.402 2.584q-25.325 43.961-50.695 88.031c-4.764 8.301-1.1 14.843 8.365 15.43 10.078 0.623 20.231 1.099 30.3 2.089 2.528 0.389 4.692 1.704 6.178 3.58l0.016 0.020c5.553 7.815 10.656 15.942 15.952 23.941 6.313 9.529 13.294 9.346 19.012-0.541q23.593-40.809 47.15-81.627l7.192-12.452c1.392 2.291 2.529 4.068 3.582 5.892q25.7 44.502 51.392 89.012c5.039 8.695 12.36 8.952 17.885 0.687s11.050-16.538 16.346-24.949c1.714-2.748 3.665-3.665 6.844-3.82 10.289-0.421 20.57-1.173 30.849-1.897 8.118-0.568 11.719-7.101 8.017-14.375-0.651-1.264-1.402-2.474-2.108-3.665-16.841-29.255-33.69-58.447-50.796-88.16z"></path>
<path fill="#000" d="M347.726 457.532c-1.136 20.322 3.784 38.482 18.801 54.177-3.079 0.147-4.93 0.32-6.78 0.32q-154.844 0-309.751 0c-24.82 0-42.211-12.397-47.992-34.762-1.603-6.212-1.402-12.882-2.062-19.736z"></path>
<path fill="#000" d="M511.851 54.894h-54.589c0.916-12.507-2.034-25.105 2.208-37.273 4.169-11.911 16.080-18.544 29.264-16.941 12.085 1.457 22.136 11.206 22.979 23.529 0.687 10.014 0.137 20.111 0.137 30.684z"></path>
<path fill="#000" d="M228.423 69.838c4.233 2.070 7.981 3.665 11.471 5.653 10.995 6.303 21.742 6.102 32.829 0.073 11.911-6.505 11.416-7.907 17.527 5.498 5.159 11.334 13.524 17.555 25.985 19.186 14.046 1.832 13.936 0.311 11.123 15.136-2.309 12.159 0.843 22.191 10.079 30.739 10.683 9.858 10.995 8.667 0.064 18.719-9.62 8.814-12.653 19.241-10.005 31.738 2.593 12.268 1.979 13.047-10.656 14.211-12.176 1.118-20.945 6.927-26.103 18.15-1.832 3.986-4.068 7.779-6.413 12.259-4.169-2.016-7.907-3.536-11.37-5.498-11.151-6.413-22.108-6.249-33.333 0-11.911 6.625-11.142 7.568-17.29-5.845-5.305-11.554-13.972-17.875-26.635-19.048s-13.148-1.759-10.546-14.248c2.675-12.828-0.623-23.273-10.518-32.068s-9.786-9.162 0.156-18.031 13.038-19.332 10.326-32.114c-2.575-12.085-2.456-12.58 9.786-13.872 13.744-1.448 23.053-8.1 28.174-20.918 1.219-3.106 3.179-5.891 5.351-9.721zM320.266 156.202c0.825-34.606-27.652-63.889-62.881-64.677s-64.182 27.487-64.924 63.082c-0.714 34.551 27.203 63.962 61.479 64.787 36.548 0.88 65.465-26.662 66.326-63.192z"></path>
<path fill="#000" d="M239.995 256.978l-48.139 83.377c-3.665-5.562-7.147-10.418-10.143-15.576-0.623-1.072 0.064-3.363 0.825-4.728 4.288-7.752 8.778-15.384 13.423-23.455l-15.786-9.163c-4.471 7.769-9.006 15.347-13.203 23.098-1.585 2.923-3.417 3.986-6.716 3.555-4.92-0.632-9.895-0.797-15.576-1.219 1.008-1.942 1.833-3.619 2.749-5.223q21.385-37.099 42.797-74.215c3.042-5.241 8.54-5.68 12.434-0.66 1.395 1.857 2.649 3.964 3.669 6.201l0.087 0.213c8.53 17.94 14.238 21.074 33.58 17.793z"></path>
<path fill="#000" d="M368.267 312.85c-6.634 0.476-12.406 1.118-18.178 1.127-1.365 0-3.161-1.832-4.041-3.289-4.581-7.55-8.933-15.246-13.551-23.208l-15.777 9.163c4.526 7.843 8.731 15.42 13.248 22.805 1.704 2.795 1.832 4.92-0.174 7.623-2.978 3.958-5.498 8.246-8.906 13.294-16.199-28.027-32.068-55.496-48.13-83.304 17.986 3.748 25.315-0.147 33.149-16.877 1.97-4.224 3.335-8.988 8.961-10.427 3.454-0.916 5.341-0.476 7.238 2.868 13.688 24.069 27.597 48.001 41.441 71.979 1.43 2.51 2.886 5.076 4.719 8.246z"></path>
<path fill="#000" d="M301.841 155.331c0 0.063 0 0.137 0 0.21 0 25.144-20.384 45.528-45.528 45.528-25.071 0-45.408-20.263-45.528-45.306v-0.012c-0.137-25.169 20.56-46.004 45.592-45.912 25.039 0.196 45.284 20.45 45.464 45.474v0.017z"></path>
</svg>
