<!-- Generated by IcoMoon.io -->
<svg version="1.1" xmlns="http://www.w3.org/2000/svg" width="512" height="512" viewBox="0 0 512 512">
<title></title>
<g id="icomoon-ignore">
</g>
<path fill="#000" d="M255.959 0.109q70.323 0 140.646 0.007c56.861 0.040 104.055 39.615 113.877 95.641 0.904 5.192 1.42 11.171 1.42 17.27 0 0.288-0.001 0.576-0.003 0.864l0-0.044q0.128 142.262 0.029 284.524c-0.065 56.839-43.328 105.57-99.62 112.481-4.765 0.628-10.291 0.995-15.899 1.012h-0.021q-140.37 0.090-280.74 0.033c-57.057-0.023-103.858-39.12-114.112-95.38-0.915-4.887-1.438-10.51-1.438-16.256 0-0.062 0-0.123 0-0.185v0.010q-0.128-143.916-0.016-287.832c0.098-55.509 44.068-104.472 99.313-111.070 4.923-0.632 10.641-1.005 16.44-1.028h0.030q70.047-0.119 140.094-0.045zM494.346 256.233q0-69.21-0.059-138.42c0.005-0.421 0.009-0.916 0.009-1.414 0-6.089-0.491-12.064-1.437-17.885l0.086 0.638c-8.364-48.054-48.154-81.364-97.301-81.409q-139.56-0.127-279.12 0.038c-0.338-0.004-0.737-0.006-1.136-0.006-5.993 0-11.861 0.543-17.554 1.581l0.594-0.090c-48.605 9.306-80.755 48.286-80.778 97.808q-0.063 138.971 0.047 277.943c-0.005 0.356-0.007 0.776-0.007 1.197 0 5.971 0.509 11.824 1.485 17.517l-0.087-0.61c8.665 47.995 48.128 81.087 96.968 81.147q139.836 0.171 279.673 0.022c0.186 0.001 0.406 0.002 0.625 0.002 12.363 0 24.202-2.244 35.13-6.347l-0.69 0.227c38.461-14.284 63.401-50.178 63.52-91.862 0.132-46.691 0.031-93.383 0.031-140.075z"></path>
<path fill="#000" d="M313.182 427.085c-19.285 0-38.719 1.548-57.826-0.301-49.805-4.819-89.922-28.269-119.857-68.15-71.148-94.786-25.781-232.665 87.594-267.196 14.751-4.739 31.722-7.482 49.33-7.505h0.012c29.598 0.056 59.197-0.016 88.795 0.025 18.103 0.025 31.621 13.4 31.559 31.098-0.060 17.262-13.71 30.582-31.509 30.611-28.863 0.047-57.726-0.085-86.589 0.035-53.030 0.221-96.628 35.006-108.704 86.578-13.989 59.744 27.013 121.742 87.43 131.894 7.205 1.257 15.538 2.007 24.036 2.072l0.060 0c27.941 0.248 55.887 0.067 83.829 0.108 16.163 0.024 29.582 11.56 31.326 26.803 0.168 1.211 0.264 2.61 0.264 4.031 0 14.852-10.492 27.253-24.469 30.197l-0.201 0.036c-2.726 0.449-5.867 0.706-9.068 0.706-1.053 0-2.101-0.028-3.14-0.082l0.146 0.006c-14.339 0.065-28.679 0.026-43.019 0.026zM312.375 129.112l0.003-1.043q4.137 0 8.274 0c13.605-0.006 27.212 0.148 40.813-0.082 0.075 0.001 0.163 0.002 0.252 0.002 7.291 0 13.222-5.825 13.392-13.076l0-0.016c0.065-7.115-5.686-12.815-13.461-13.311-1.099-0.070-2.205-0.031-3.308-0.031-27.578-0.001-55.157-0.197-82.732 0.106-10.089 0.025-19.959 0.878-29.57 2.493l1.054-0.147c-100.782 17.413-157.483 127.22-112.29 218.976 25.44 51.654 67.942 80.941 125.549 86.368 19.877 1.873 40.028 0.897 60.055 1.086 13.604 0.128 27.212 0.159 40.814-0.043 8.104-0.12 14.044-6.122 13.889-13.411-0.151-7.119-5.947-12.612-13.767-13.011-1.467-0.075-2.941-0.025-4.411-0.025-28.681-0.005-57.364 0.18-86.041-0.135-8.537-0.055-16.819-1.020-24.792-2.801l0.777 0.146c-71.082-15.902-113.878-83.87-97.825-154.952 11.476-50.815 56.615-91.866 108.268-96.817 18.194-1.743 36.696-0.278 55.057-0.278z"></path>
</svg>
